<svg version="1" xmlns="http://www.w3.org/2000/svg" width="933.333" height="933.333" viewBox="0 0 700.000000 700.000000"><path d="M616.5 34.1c-15.3 2.5-32.2 11.2-45.2 23.3-3.5 3.2-6.3 6.2-6.3 6.6 0 .4 3.3 1 7.3 1.3 21.1 1.8 44 12.7 55.5 26.5 8.6 10.3 14.8 24.2 17.2 38.9l1.2 7.3 4.7-5.3c13.7-15 17.6-20.3 22.9-31.5 3.5-7.3 3.7-8.2 3.7-17.7s-.2-10.4-3.6-17.5c-3.9-8-11.4-17.4-18.2-22.9-10.3-8.3-24.3-11.5-39.2-9z"/><path d="M432.5 49.4c-12.2 3-23.2 12.2-27.7 23.3l-2.3 5.8-.3 70-.3 70 69.3-69.3L540.5 80h4.5c6.9 0 23.1 1.9 26.7 3.1 3.5 1.1 4.9 3.8 3.5 6.6-.6 1-39.8 40.4-87.1 87.6-60.9 60.6-86 86.4-85.7 87.5.2.9.8 3.6 1.1 5.9.4 2.4 1 4.5 1.4 4.8.5.2 43.5-40.9 95.7-91.5 65.9-63.8 95.6-92 97.1-92 3 0 13.8 8.4 19 14.9 5.3 6.6 10.4 17 12.8 26.1 1.9 6.8 2.6 27.2 1.3 32.1-.5 1.6-27.4 29.1-68.3 69.7L495 302h63.4c42.9 0 65.2-.4 68.8-1.1 15.8-3.3 27.9-15.5 30.8-31 .6-3.1 1-31 1-68.9v-63.8l-7.2 7.4c-7.1 7.4-10.3 8.9-12.6 6.1-.5-.6-1.5-6.3-2.1-12.6-.7-6.3-2.1-14.2-3.2-17.5-9.8-29-33.1-45.1-68.9-47.2-5.8-.4-11.1-1.1-11.7-1.7-3.2-2.5-.8-7.1 9.1-17.5l5.9-6.2-65.4.1c-47.7 0-66.8.4-70.4 1.3z"/><path d="M281 76.1c-29.1 2.8-51 21.3-58 49.1-1.8 7.5-1.9 12.5-2 145.5-.1 135.5-.1 137.9 1.9 145.6 6.1 23.2 23.5 40.8 47.1 47.4 6.1 1.7 14.3 1.8 146.5 1.8s140.4-.1 146.5-1.8c24.1-6.8 40.7-23.4 47.2-47.6 1.9-6.8 2.1-11.3 2.5-44.4l.5-36.7H462.5l-41 41.1c-22.6 22.6-42.2 41.9-43.7 43-2.8 2.1-106.5 27.9-112 27.9-2 0-3.1-.6-3.7-2.2-.5-1.5 3.3-18.4 12.9-56.7 7.5-30 14.1-55.5 14.8-56.6.6-1.1 18.7-19.6 40.2-41l39-39V168c-.1-45.9.2-85.3.5-87.6l.7-4.1-28.8-.6c-34.1-.8-48.9-.7-60.4.4z"/><path d="M420.3 212.2L297.1 335.5l-12.7 50.3c-7 27.6-12.5 50.5-12.1 50.8.3.3 22.5-4.7 49.4-11.2l48.8-11.8 126.3-126 126.4-126.1-.5-12c-.6-14-3.3-23.3-9.3-32.3-3.9-5.9-13-15.2-14.8-15.2-.6 0-56.7 53.9-124.8 119.8L350.2 341.5l-21 7.3c-11.6 4.1-22.1 7.2-23.4 7-1.7-.2-2.4-1-2.6-3.2-.3-2.7 10.3-13.6 129.3-132.6C576.2 76.2 564.7 89 550.5 89h-7L420.3 212.2z"/><path d="M117.9 157c-20.4 2.4-41 12.5-53.6 26.3-9.7 10.6-15 20.3-20.1 36.6l-2.7 8.6v350l2.3 8.5c8.2 31 28.5 51.9 59.8 61.7l8.9 2.8h352l8.4-2.3c32-8.8 53.3-30.1 61.8-61.9 2.6-9.6 2.7-10.4 3.1-49l.4-39.3H413.8c-76.3 0-128.4-.4-135-1-40.9-3.9-72.5-28.5-85.5-66.5-5.4-15.8-5.3-13.6-5.3-149.6V156l-31.7.1c-17.5.1-34.8.5-38.4.9z"/><path d="M349.5 316.1C335.7 330 325.2 341 326 340.8c.8-.3 5.7-2 10.8-3.8l9.2-3.3 17.1-16.6 17.1-16.6-2.3-4.8c-1.3-2.6-2.5-4.7-2.9-4.7-.3 0-11.8 11.3-25.5 25.1z"/></svg>