<?xml version="1.0" encoding="UTF-8" standalone="no"?>
<svg xmlns:rdf="http://www.w3.org/1999/02/22-rdf-syntax-ns#" xmlns="http://www.w3.org/2000/svg" xml:space="preserve" viewBox="0 0 345 345" version="1.1" xmlns:cc="http://creativecommons.org/ns#" xmlns:xlink="http://www.w3.org/1999/xlink" xmlns:dc="http://purl.org/dc/elements/1.1/"><defs><linearGradient id="a" y2="39.1" gradientUnits="userSpaceOnUse" x2="295" y1="217" x1="119"><stop stop-color="#22968c" offset="0"/><stop stop-color="#28aea2" offset="1"/></linearGradient></defs><g transform="translate(4,-7.5)"><g transform="translate(0,15)"><linearGradient id="c" y2="293" gradientUnits="userSpaceOnUse" y1="105" x2="37.4" x1="231"><stop stop-color="#29b5a9" offset="0"/><stop stop-color="#137e75" offset="1"/></linearGradient><path d="m8 114c0-30.5 22-52.6 52.1-52.6h157c30.1 0 52.1 22.1 52.1 52.3v156c0 30.2-22 52.3-52.1 52.3h-157c-30 0-52-22-52-52v-156z" stroke="#fff" stroke-width="16" fill="url(#c)"/></g><g transform="translate(0,15)"><path d="m96.6 63.4c0-24.1 17.6-41.8 41.7-41.8h126c24.1 0 41.7 17.7 41.7 41.8v125c0 24.1-17.6 41.8-41.7 41.8h-126c-24.1 0-41.7-17.7-41.7-41.8v-125z" stroke="#fff" stroke-width="16" fill="url(#a)"/></g><g transform="translate(0,15)"><linearGradient id="b" x1="204" gradientUnits="userSpaceOnUse" y1="139" x2="318" y2="19.5"><stop stop-color="#219187" offset="0"/><stop stop-color="#28aea2" offset="1"/></linearGradient><path d="m186 36.4c0-16.4 12-28.4 29-28.4h85.9c16 0 28 12 28 28.4v84.6c0 16.4-12 28.4-28.4 28.4h-85.9c-16.4 0-28.4-12-28.4-28.4v-84.6z" stroke="#fff" stroke-width="16" fill="url(#b)"/></g></g><g stroke-linejoin="round" transform="matrix(.773 0 0 .773 -40.7 -107)" stroke="#fff" stroke-linecap="round" fill="#023c37"><path d="m475 166c-19.7-19.7-54.6-4.04-67.8 16.2 0 0 54.9-4.04 54.9 50.6 23.3-23.3 37.4-42.2 12.9-66.8z" stroke-width="5.4"/><path d="m222 421 69.1-16.8 161-161c0.003 0.001 5.69-29-18.4-43.5l-159 154-26.6 9.35 169-169c-5.35-1.12-11.4-1.78-18.5-1.78l-159 159z" stroke-width="5.4"/></g></svg>
